Coordinates
version=1
nRows=19
nColumns=24
inDegrees=yes

Units are S.I. units (second, meters, Newtons, ...)
Angles are in degrees.

endheader
time	pelvis_tilt	pelvis_list	pelvis_rotation	pelvis_tx	pelvis_ty	pelvis_tz	hip_flexion_r	hip_adduction_r	hip_rotation_r	knee_angle_r	ankle_angle_r	subtalar_angle_r	mtp_angle_r	hip_flexion_l	hip_adduction_l	hip_rotation_l	knee_angle_l	ankle_angle_l	subtalar_angle_l	mtp_angle_l	lumbar_extension	lumbar_bending	lumbar_rotation
      2.82000000	     55.84545442	      4.27284067	     -4.23405872	      1.28713730	      1.04422830	     -0.28779224	     24.40179479	     -5.91666387	      1.23096407	    -10.08737130	    -30.71905659	      0.00000000	      0.00000000	     15.53607949	    -11.21915937	     -5.39625141	    -63.36650883	    -14.35105402	      0.00000000	      0.00000000	      0.00000000	      0.00000000	      0.00000000
      2.83000000	     55.83005422	      4.27656436	     -4.23371352	      1.28715896	      1.04421957	     -0.28779802	     24.41824915	     -5.91822705	      1.23570075	    -10.09009052	    -30.71305419	      0.00000000	      0.00000000	     15.55229297	    -11.21785245	     -5.39494356	    -63.37113202	    -14.35159344	      0.00000000	      0.00000000	      0.00000000	      0.00000000	      0.00000000
      2.84000000	     55.81724850	      4.27859673	     -4.23251622	      1.28717543	      1.04421451	     -0.28779955	     24.43186823	     -5.91859594	      1.24212254	    -10.09083587	    -30.70666476	      0.00000000	      0.00000000	     15.56629434	    -11.21836175	     -5.39399930	    -63.37810400	    -14.35396334	      0.00000000	      0.00000000	      0.00000000	      0.00000000	      0.00000000
      2.85000000	     55.80723158	      4.27903966	     -4.23066063	      1.28718075	      1.04421015	     -0.28779780	     24.44314653	     -5.91798301	      1.25052125	    -10.08946117	    -30.70075399	      0.00000000	      0.00000000	     15.57875138	    -11.22056907	     -5.39288818	    -63.38695459	    -14.35835715	      0.00000000	      0.00000000	      0.00000000	      0.00000000	      0.00000000
      2.86000000	     55.79979467	      4.27839264	     -4.22869687	      1.28717935	      1.04420190	     -0.28779527	     24.45242007	     -5.91677545	      1.26048568	    -10.08625009	    -30.69618244	      0.00000000	      0.00000000	     15.59013513	    -11.22422001	     -5.39123816	    -63.39691246	    -14.36459782	      0.00000000	      0.00000000	      0.00000000	      0.00000000	      0.00000000
      2.87000000	     55.79413138	      4.27729694	     -4.22708777	      1.28718029	      1.04418883	     -0.28779280	     24.45972942	     -5.91549531	      1.27097303	    -10.08178760	    -30.69360850	      0.00000000	      0.00000000	     15.60043447	    -11.22875959	     -5.38907786	    -63.40718840	    -14.37212234	      0.00000000	      0.00000000	      0.00000000	      0.00000000	      0.00000000
      2.88000000	     55.78912661	      4.27621973	     -4.22596325	      1.28718776	      1.04417598	     -0.28779197	     24.46502470	     -5.91458747	      1.28066916	    -10.07665949	    -30.69330419	      0.00000000	      0.00000000	     15.60916807	    -11.23342188	     -5.38683729	    -63.41715531	    -14.38007652	      0.00000000	      0.00000000	      0.00000000	      0.00000000	      0.00000000
      2.89000000	     55.78403933	      4.27519938	     -4.22517014	      1.28719890	      1.04417195	     -0.28779168	     24.46859310	     -5.91425696	      1.28850100	    -10.07113257	    -30.69503155	      0.00000000	      0.00000000	     15.61571938	    -11.23754253	     -5.38511086	    -63.42636520	    -14.38748801	      0.00000000	      0.00000000	      0.00000000	      0.00000000	      0.00000000
      2.90000000	     55.77880302	      4.27401483	     -4.22459097	      1.28720974	      1.04417934	     -0.28778965	     24.47102913	     -5.91432725	      1.29397718	    -10.06515013	    -30.69802599	      0.00000000	      0.00000000	     15.61988440	    -11.24089602	     -5.38432133	    -63.43442960	    -14.39346269	      0.00000000	      0.00000000	      0.00000000	      0.00000000	      0.00000000
      2.91000000	     55.77371730	      4.27252649	     -4.22440861	      1.28722003	      1.04419034	     -0.28778781	     24.47288051	     -5.91422327	      1.29723447	    -10.05857146	    -30.70112369	      0.00000000	      0.00000000	     15.62221743	    -11.24381174	     -5.38450699	    -63.44099242	    -14.39735221	      0.00000000	      0.00000000	      0.00000000	      0.00000000	      0.00000000
      2.92000000	     55.76891356	      4.27070713	     -4.22501128	      1.28723149	      1.04419608	     -0.28778835	     24.47454920	     -5.91319461	      1.29888170	    -10.05135517	    -30.70303045	      0.00000000	      0.00000000	     15.62384559	    -11.24693068	     -5.38540280	    -63.44593527	    -14.39885807	      0.00000000	      0.00000000	      0.00000000	      0.00000000	      0.00000000
      2.93000000	     55.76414054	      4.26853080	     -4.22669805	      1.28724406	      1.04419613	     -0.28778903	     24.47653265	     -5.91061988	      1.29977332	    -10.04360495	    -30.70266539	      0.00000000	      0.00000000	     15.62604215	    -11.25077832	     -5.38670251	    -63.44955786	    -14.39805675	      0.00000000	      0.00000000	      0.00000000	      0.00000000	      0.00000000
      2.94000000	     55.75898017	      4.26603582	     -4.22940865	      1.28725493	      1.04419372	     -0.28778703	     24.47970795	     -5.90622556	      1.30078656	    -10.03555250	    -30.69946414	      0.00000000	      0.00000000	     15.62989948	    -11.25541588	     -5.38825227	    -63.45251305	    -14.39534937	      0.00000000	      0.00000000	      0.00000000	      0.00000000	      0.00000000
      2.95000000	     55.75309225	      4.26347365	     -4.23258216	      1.28725912	      1.04418906	     -0.28778196	     24.48532930	     -5.90028365	      1.30260657	    -10.02753021	    -30.69353780	      0.00000000	      0.00000000	     15.63613051	    -11.26032684	     -5.39004139	    -63.45558398	    -14.39135369	      0.00000000	      0.00000000	      0.00000000	      0.00000000	      0.00000000
      2.96000000	     55.74613450	      4.26132190	     -4.23532527	      1.28725265	      1.04417987	     -0.28777374	     24.49454579	     -5.89380733	      1.30552433	    -10.01996198	    -30.68564172	      0.00000000	      0.00000000	     15.64499661	    -11.26454683	     -5.39205327	    -63.45944138	    -14.38677199	      0.00000000	      0.00000000	      0.00000000	      0.00000000	      0.00000000
      2.97000000	     55.73762988	      4.26019284	     -4.23685696	      1.28724172	      1.04416392	     -0.28776442	     24.50769741	     -5.88844227	      1.30934082	    -10.01332096	    -30.67696556	      0.00000000	      0.00000000	     15.65642558	    -11.26699049	     -5.39411451	    -63.46438158	    -14.38227299	      0.00000000	      0.00000000	      0.00000000	      0.00000000	      0.00000000
      2.98000000	     55.72724157	      4.26068246	     -4.23682314	      1.28724220	      1.04414365	     -0.28776054	     24.52398898	     -5.88585265	      1.31349787	    -10.00796087	    -30.66879972	      0.00000000	      0.00000000	     15.67019421	    -11.26690068	     -5.39583287	    -63.47008705	    -14.37840469	      0.00000000	      0.00000000	      0.00000000	      0.00000000	      0.00000000
      2.99000000	     55.71520648	      4.26309841	     -4.23520948	      1.28725813	      1.04412653	     -0.28776652	     24.54174213	     -5.88692322	      1.31738576	    -10.00390743	    -30.66216744	      0.00000000	      0.00000000	     15.68587452	    -11.26416340	     -5.39669758	    -63.47562373	    -14.37553325	      0.00000000	      0.00000000	      0.00000000	      0.00000000	      0.00000000
      3.00000000	     55.70249660	      4.26725927	     -4.23205753	      1.28727711	      1.04411821	     -0.28777967	     24.55895769	     -5.89137715	      1.32063421	    -10.00079600	    -30.65754017	      0.00000000	      0.00000000	     15.70257831	    -11.25929290	     -5.39630802	    -63.47977950	    -14.37380373	      0.00000000	      0.00000000	      0.00000000	      0.00000000	      0.00000000
